<svg width="38" height="16" viewBox="0 0 38 16" fill="none" xmlns="http://www.w3.org/2000/svg">
<g clip-path="url(#clip0_13_115)">
<path d="M5.10626 2.98157L5.11196 2.95532L5.12716 2.84469L4.42416 2.84094C3.78956 2.83719 3.59481 2.84094 3.57771 2.85688C3.56916 2.86438 3.34971 3.68656 2.95926 5.17531C2.77306 5.88594 2.61631 6.45313 2.61061 6.43625C2.60491 6.41938 2.38261 5.60844 2.11471 4.63438C1.95431 4.03882 1.78837 3.44474 1.61691 2.85219C1.60741 2.84282 0.756207 2.83907 0.066507 2.84469C-0.033243 2.84563 -0.089293 2.6525 0.957607 5.9375C1.10201 6.39219 1.31956 7.03625 1.43926 7.36813C1.57796 7.75063 1.67676 8.04688 1.74421 8.29344C1.86391 8.76313 1.86771 9.0575 1.84206 9.40156C1.81166 9.79813 1.80786 12.6013 1.83731 12.6481C1.86011 12.6838 3.19106 12.7006 3.31741 12.6669C3.33736 12.6613 3.35066 12.6425 3.36016 12.5366C3.39151 12.4456 3.39436 12.0828 3.39436 10.5772V8.65438L3.47986 8.38906C3.53591 8.21563 3.67556 7.75907 3.79146 7.37469L4.10211 6.35281C4.60466 4.73656 5.08346 3.1475 5.09676 3.05657L5.10721 2.9825L5.10626 2.98157Z" fill="white"/>
<path d="M12.5599 5.31412V5.41443H12.5438L12.5352 8.18287L12.5267 10.8669L12.3091 11.0854C12.065 11.3301 11.8702 11.4238 11.6935 11.3797C11.5007 11.3319 11.5064 11.406 11.4902 8.2335L11.475 5.31318H10.0747V5.4135H10.0586V8.58225C10.0586 11.9769 10.0586 11.9751 10.2334 12.3154C10.3721 12.5872 10.5754 12.7194 10.9221 12.7644C11.3791 12.8244 11.8721 12.6201 12.3291 12.1813L12.5276 11.991V12.3201C12.5276 12.6041 12.5362 12.651 12.5884 12.6651C12.6739 12.6885 13.7341 12.6904 13.8481 12.6669L13.9431 12.6472V12.5497L13.9593 12.5469V5.29443L12.5609 5.31318L12.5599 5.31412Z" fill="white"/>
<path d="M9.00889 6.74465C8.87589 6.18309 8.62794 5.80528 8.21849 5.54465C7.57629 5.13496 6.84194 5.0909 6.16174 5.42278C5.66584 5.66465 5.34569 6.0659 5.18134 6.65465C5.16024 6.72545 5.1453 6.7979 5.13669 6.87121C5.09489 7.07934 5.09014 7.38871 5.07874 8.8334C5.06164 11.059 5.08824 11.3234 5.37039 11.8287C5.64779 12.3246 6.22254 12.6884 6.84859 12.7634C7.03669 12.7859 7.41859 12.7512 7.63899 12.6903C8.13774 12.5534 8.61654 12.1643 8.82839 11.7228C8.92166 11.546 8.98245 11.3543 9.00794 11.1565C9.06969 10.8256 9.07444 10.2893 9.07444 8.92434C9.07444 7.1834 9.06874 6.99309 9.00984 6.74371L9.00889 6.74465ZM7.41194 11.2812C7.26754 11.3744 7.09167 11.4074 6.92269 11.3731C6.79444 11.3459 6.62059 11.1471 6.56739 10.9662C6.50089 10.7403 6.49614 7.59684 6.55314 6.9809C6.64814 6.67246 6.91224 6.51121 7.20104 6.58809C7.42619 6.64809 7.54114 6.78684 7.60669 7.0784C7.65514 7.29496 7.66084 7.56403 7.65039 9.14746C7.64374 10.1975 7.63994 10.7112 7.60479 10.9868C7.56964 11.1603 7.51074 11.2072 7.41194 11.2822V11.2812Z" fill="white"/>
<path d="M34.1468 8.32423H34.8232L34.8128 7.71954C34.8023 7.16454 34.7938 7.10173 34.7187 6.95079C34.6 6.7136 34.4252 6.60767 34.1478 6.60767C33.8143 6.60767 33.6034 6.76704 33.5036 7.09329C33.4609 7.23204 33.4162 8.18735 33.4485 8.26985C33.4666 8.31579 33.5635 8.32423 34.1468 8.32423Z" fill="white"/>
<path d="M29.6248 6.94903C29.5845 6.86568 29.5198 6.79623 29.4389 6.74974C29.3581 6.70325 29.2649 6.68188 29.1716 6.68841C28.9948 6.70173 28.8264 6.76815 28.689 6.87872L28.5684 6.96966V11.314L28.689 11.405C28.9626 11.6112 29.2628 11.6543 29.4699 11.5175C29.5557 11.4577 29.6181 11.3707 29.6466 11.2709C29.7008 11.1172 29.7055 10.9193 29.6989 9.09122C29.6913 7.18622 29.6875 7.07372 29.6248 6.94903Z" fill="white"/>
<path d="M38.0135 4.99149C37.8786 3.3968 37.7712 2.8793 37.4387 2.21461C36.997 1.3343 36.3595 0.870238 35.4513 0.76805C34.7493 0.6893 32.1064 0.577738 29.662 0.5243C25.4288 0.431488 18.4691 0.61055 17.5799 0.834613C17.1831 0.930726 16.8224 1.13698 16.5406 1.42899C15.9792 1.98024 15.6438 2.77149 15.5099 3.86649C15.203 6.36586 15.1964 9.38461 15.4918 11.9749C15.6191 13.0887 15.8813 13.8124 16.3734 14.4087C16.6803 14.7809 17.2104 15.0968 17.6835 15.1915C18.016 15.258 19.6785 15.3499 22.101 15.4352C22.462 15.4484 23.4167 15.4699 24.2242 15.484C25.9057 15.513 28.998 15.4962 30.7659 15.4474C31.9553 15.4146 34.1232 15.3274 34.5289 15.2965C34.6429 15.288 34.907 15.2712 35.116 15.2599C35.818 15.2205 36.2645 15.0762 36.6835 14.7509C37.2259 14.3299 37.6458 13.5527 37.8235 12.6405C37.9916 11.778 38.1037 10.2415 38.1265 8.4968C38.1455 7.03899 38.1199 6.25336 38.0135 4.98961V4.99149ZM21.1567 4.41399L20.3701 4.42336L20.3359 12.7015L19.6538 12.7099C19.1265 12.7174 18.966 12.709 18.9536 12.6762C18.9441 12.6527 18.9337 10.7862 18.9289 8.52868L18.9204 4.42336L17.3842 4.40461V3.11086L21.9243 3.12867L21.9433 4.40367L21.1567 4.41305V4.41399ZM25.9798 9.15867V12.7184H24.7372V12.3434C24.7372 12.0612 24.7268 11.9684 24.6926 11.9684C24.6679 11.9684 24.5558 12.0612 24.4427 12.1746C24.1967 12.4212 23.906 12.619 23.6571 12.7109C23.1422 12.9012 22.6539 12.7896 22.4458 12.4362C22.2549 12.1127 22.252 12.0396 22.252 8.68149V5.59711H23.4937L23.5032 8.50149C23.5127 11.3552 23.5136 11.4077 23.583 11.524C23.6751 11.6777 23.8148 11.7199 24.0371 11.659C24.1682 11.6234 24.2575 11.5605 24.4693 11.3524L24.7372 11.0899V5.59711H25.9798V9.1568V9.15867ZM30.8267 12.2102C30.7175 12.4512 30.4733 12.6865 30.2729 12.7446C29.7513 12.8965 29.3324 12.7727 28.8488 12.3237C28.6987 12.184 28.5591 12.0715 28.5382 12.0715C28.5125 12.0715 28.4992 12.1802 28.4992 12.3949V12.7184H27.2566V3.11086H28.4992V4.67836C28.4992 5.53992 28.5106 6.24586 28.5249 6.24586C28.5391 6.24586 28.6702 6.13149 28.8165 5.99274C29.1528 5.67305 29.4331 5.53242 29.7893 5.50617C30.4249 5.45836 30.8039 5.7818 30.9768 6.51867C31.031 6.74836 31.0357 7.01086 31.0357 9.1418C31.0357 11.7368 31.0357 11.748 30.8258 12.2102H30.8267ZM36.085 10.7852C36.0785 11.014 36.0541 11.2418 36.0118 11.4668C35.8389 12.0987 35.3791 12.5468 34.7141 12.7305C33.8192 12.978 32.8331 12.573 32.4398 11.7959C32.2194 11.3599 32.2109 11.2727 32.2109 9.1418C32.2109 7.40461 32.2175 7.19086 32.2736 6.95367C32.4332 6.28336 32.8284 5.8493 33.4981 5.60836C33.6919 5.53899 33.8943 5.50242 34.0966 5.49867C34.8196 5.48367 35.5359 5.86711 35.837 6.49149C36.0394 6.91242 36.065 7.09336 36.085 8.28024L36.103 9.34524L33.4535 9.36305L33.444 10.0784C33.4297 11.088 33.4991 11.3984 33.7755 11.5812C34.0073 11.7359 34.3645 11.7237 34.5583 11.5559C34.7407 11.3984 34.792 11.2287 34.8101 10.7337L34.8262 10.2996H36.1059L36.085 10.7852Z" fill="white"/>
</g>
<defs>
<clipPath id="clip0_13_115">
<rect width="38" height="15" fill="white" transform="translate(0 0.5)"/>
</clipPath>
</defs>
</svg>
